<?xml version="1.0" standalone="no"?>
<!DOCTYPE svg PUBLIC "-//W3C//DTD SVG 20010904//EN"
 "http://www.w3.org/TR/2001/REC-SVG-20010904/DTD/svg10.dtd">
<svg version="1.0" xmlns="http://www.w3.org/2000/svg"
 width="1680.000000pt" height="1680.000000pt" viewBox="0 0 1680.000000 1680.000000"
 preserveAspectRatio="xMidYMid meet">

<g transform="translate(0.000000,1680.000000) scale(0.100000,-0.100000)"
fill="#000000" stroke="none">
<path d="M3850 12745 l0 -405 450 0 450 0 0 -475 0 -475 440 0 440 0 0 475 0
475 450 0 450 0 0 405 0 405 -1340 0 -1340 0 0 -405z"/>
<path d="M6940 12270 l0 -880 1040 0 c1159 0 1046 -7 1160 70 210 143 343 385
370 674 42 443 -149 816 -478 936 -203 74 -303 80 -1268 80 l-824 0 0 -880z
m1441 206 c158 -34 230 -114 245 -272 11 -123 -38 -242 -123 -298 -77 -50
-195 -69 -445 -74 l-228 -4 0 331 0 331 243 0 c169 0 262 -5 308 -14z"/>
<path d="M9960 12270 l0 -880 440 0 440 0 0 880 0 880 -440 0 -440 0 0 -880z"/>
<path d="M11820 12270 l0 -880 440 0 440 0 0 880 0 880 -440 0 -440 0 0 -880z"/>
<path d="M4750 11060 l0 -90 440 0 440 0 0 90 0 90 -440 0 -440 0 0 -90z"/>
<path d="M6940 11060 l0 -90 443 2 442 3 0 85 0 85 -442 3 -443 2 0 -90z"/>
<path d="M8147 11106 c22 -25 51 -66 64 -91 l24 -45 503 0 503 0 -18 31 c-10
17 -38 56 -63 87 l-46 57 -503 3 -503 2 39 -44z"/>
<path d="M9967 11143 c-7 -6 -3 -62 9 -140 l5 -33 440 0 440 0 -5 45 c-3 25
-9 65 -12 90 l-5 45 -433 0 c-238 0 -436 -3 -439 -7z"/>
<path d="M11816 11108 c-3 -24 -8 -64 -11 -91 l-6 -47 443 2 443 3 7 80 c3 44
4 83 1 88 -2 4 -199 7 -438 7 l-434 0 -5 -42z"/>
<path d="M4750 10650 l0 -80 440 0 440 0 0 80 0 80 -440 0 -440 0 0 -80z"/>
<path d="M6947 10723 c-4 -3 -7 -39 -7 -80 l0 -73 445 0 446 0 -3 78 -3 77
-436 3 c-239 1 -439 -1 -442 -5z"/>
<path d="M8360 10720 c0 -6 16 -42 35 -80 l35 -70 505 0 505 0 -26 58 c-14 31
-30 67 -35 80 l-9 22 -505 0 c-338 0 -505 -3 -505 -10z"/>
<path d="M10031 10713 c0 -10 8 -45 17 -78 l17 -60 1261 -3 1262 -2 10 27 c24
65 40 122 34 127 -3 3 -218 6 -478 6 l-473 0 -33 -28 c-170 -145 -455 -146
-632 -3 l-39 31 -473 0 c-445 0 -474 -1 -473 -17z"/>
<path d="M4750 10265 l0 -65 440 0 440 0 0 65 0 65 -440 0 -440 0 0 -65z"/>
<path d="M6944 10316 c-3 -7 -4 -35 -2 -62 l3 -49 440 0 440 0 0 60 0 60 -438
3 c-366 2 -438 0 -443 -12z"/>
<path d="M8550 10321 c0 -5 12 -34 26 -65 l25 -56 500 0 c280 0 499 4 499 9 0
5 -12 34 -26 65 l-25 56 -500 0 c-280 0 -499 -4 -499 -9z"/>
<path d="M10200 10324 c0 -3 21 -32 46 -65 l45 -59 1033 0 c811 0 1035 3 1047
13 29 23 89 104 82 110 -8 8 -2253 9 -2253 1z"/>
<path d="M4750 9925 l0 -35 440 0 440 0 0 35 0 35 -440 0 -440 0 0 -35z"/>
<path d="M6940 9925 l0 -35 446 0 445 0 -3 33 -3 32 -442 3 -443 2 0 -35z"/>
<path d="M8720 9955 c0 -4 7 -19 15 -35 l16 -30 499 0 500 0 -17 35 -17 35
-498 0 c-274 0 -498 -2 -498 -5z"/>
<path d="M10620 9955 c0 -23 218 -78 396 -101 192 -25 570 -25 701 -1 116 22
253 61 301 87 37 19 35 19 -680 20 -395 0 -718 -2 -718 -5z"/>
<path d="M3980 9028 c-52 -15 -86 -43 -109 -91 -20 -42 -21 -57 -21 -506 0
-444 1 -463 20 -501 11 -22 39 -52 62 -67 l42 -28 4315 -3 c3040 -2 4327 0
4353 8 20 6 51 22 68 36 62 52 60 38 60 556 0 535 3 515 -79 573 l-43 30
-4316 2 c-2844 1 -4329 -2 -4352 -9z m742 -349 c54 -28 115 -106 105 -133 -4
-11 -115 -43 -121 -34 -1 1 -10 15 -19 30 -34 54 -121 41 -147 -21 -7 -19 -11
-60 -8 -107 3 -69 6 -79 31 -100 51 -43 115 -25 137 40 l11 34 61 -20 c34 -10
64 -20 66 -22 2 -2 -7 -27 -19 -55 -36 -84 -97 -121 -199 -121 -98 0 -170 43
-212 124 -26 51 -35 165 -18 235 16 69 76 136 138 156 52 17 157 13 194 -6z
m1775 -8 c77 -39 114 -103 121 -207 7 -107 -11 -167 -67 -224 -49 -51 -94 -70
-169 -70 -156 0 -252 101 -252 265 0 133 64 227 175 256 47 13 150 2 192 -20z
m540 0 c41 -20 93 -89 93 -122 0 -10 -20 -19 -61 -28 -34 -7 -62 -11 -63 -9
-1 2 -9 15 -18 29 -34 55 -114 45 -143 -18 -13 -26 -16 -55 -13 -110 3 -67 6
-78 31 -99 51 -44 115 -25 137 42 7 19 17 33 24 31 6 -2 35 -12 64 -22 50 -16
53 -19 47 -44 -3 -14 -18 -44 -33 -66 -72 -106 -253 -117 -349 -21 -99 100
-97 312 5 409 61 59 194 72 279 28z m5401 5 c34 -18 82 -80 82 -107 0 -13 -14
-20 -50 -28 -71 -15 -80 -14 -106 14 -25 27 -79 34 -116 14 -45 -24 -64 -151
-33 -225 16 -39 71 -69 108 -59 61 17 77 28 77 51 0 20 -5 23 -47 26 l-48 3
-3 53 -3 52 115 0 116 0 0 -110 0 -110 -39 -26 c-119 -78 -296 -71 -374 16
-72 78 -88 235 -35 337 26 52 85 100 139 114 51 12 181 4 217 -15z m-8148
-241 l0 -256 -72 3 -73 3 -3 240 c-1 132 0 245 2 252 4 9 28 13 76 13 l70 0 0
-255z m1010 200 l0 -55 -120 0 -120 0 0 -40 0 -40 110 0 110 0 0 -55 0 -55
-110 0 -110 0 0 -45 0 -44 123 -3 122 -3 3 -57 3 -58 -201 0 -200 0 0 255 0
255 195 0 195 0 0 -55z m450 -35 l0 -91 78 3 77 3 3 88 3 87 69 0 70 0 0 -255
0 -255 -70 0 -70 0 0 100 0 100 -80 0 -80 0 0 -100 0 -100 -75 0 -75 0 0 255
0 255 75 0 75 0 0 -90z m1612 0 l3 -90 70 90 70 89 98 1 98 0 -23 -29 c-13
-16 -51 -60 -84 -98 l-62 -68 52 -90 c29 -50 69 -120 89 -157 l38 -68 -91 0
-91 0 -44 90 c-24 50 -46 96 -49 103 -3 7 -18 -3 -40 -28 -33 -37 -36 -45 -36
-102 l0 -63 -75 0 -75 0 0 255 0 255 75 0 74 0 3 -90z m788 35 l0 -54 -122 -3
-123 -3 -3 -37 -3 -38 115 0 116 0 0 -55 0 -55 -115 0 -115 0 0 -45 0 -44 128
-3 127 -3 3 -57 3 -58 -201 0 -200 0 0 255 0 255 195 0 195 0 0 -55z m242 -25
c24 -44 46 -80 50 -80 4 0 26 36 50 80 l43 80 84 0 83 0 -14 -22 c-8 -13 -49
-78 -91 -145 l-77 -123 0 -110 0 -110 -75 0 -75 0 0 103 0 103 -86 139 c-47
77 -88 145 -91 152 -4 10 14 13 75 13 l81 0 43 -80z m978 15 l0 -65 -70 0 -70
0 -2 -187 -3 -188 -72 -3 -73 -3 0 191 0 190 -75 0 -75 0 0 65 0 65 220 0 220
0 0 -65z m433 42 c43 -28 61 -65 61 -122 0 -59 -19 -96 -64 -124 l-30 -18 26
-24 c14 -13 44 -62 66 -109 l40 -85 65 185 c35 102 75 214 87 250 l24 65 80 3
80 3 12 -33 c46 -127 160 -462 160 -469 0 -5 -34 -9 -75 -9 l-74 0 -11 40 -11
40 -83 0 -84 0 -9 -37 -9 -38 -159 0 -160 0 -50 94 c-33 62 -58 97 -72 102
-23 8 -23 8 -23 -96 l0 -105 -75 0 -75 0 0 256 0 256 168 -4 c140 -2 172 -6
195 -21z m807 -232 l0 -255 -70 0 -70 0 0 255 0 255 70 0 70 0 0 -255z m330
120 l85 -135 3 135 3 135 69 0 70 0 0 -255 0 -256 -72 3 -72 3 -80 128 -81
127 -3 -130 -3 -130 -69 0 -70 0 0 255 0 255 68 0 67 0 85 -135z m480 -120 l0
-255 -75 0 -75 0 0 255 0 255 75 0 75 0 0 -255z m322 123 l83 -132 5 130 5
129 68 3 67 3 0 -256 0 -255 -69 0 -68 0 -84 133 -84 132 -3 -132 -3 -133 -69
0 -70 0 0 255 0 255 69 0 70 0 83 -132z"/>
<path d="M6345 8571 c-41 -17 -59 -50 -63 -116 -5 -80 11 -131 48 -150 41 -21
75 -19 107 9 25 21 28 31 31 100 5 94 -9 133 -54 152 -38 16 -41 16 -69 5z"/>
<path d="M9590 8530 c0 -46 2 -50 24 -50 79 0 118 30 97 76 -9 21 -17 24 -66
24 l-55 0 0 -50z"/>
<path d="M10135 8473 c-10 -38 -20 -74 -23 -80 -3 -9 9 -13 42 -13 28 0 46 5
46 11 0 15 -40 149 -44 149 -2 0 -11 -30 -21 -67z"/>
<path d="M11270 7014 c-14 -2 -67 -11 -119 -20 -441 -71 -803 -355 -986 -774
-102 -233 -150 -475 -162 -812 l-6 -198 448 0 448 0 -7 53 c-8 70 10 343 29
445 34 179 89 295 185 393 162 166 404 204 628 99 86 -40 188 -142 235 -235
77 -154 108 -317 111 -577 l1 -178 444 0 444 0 -6 203 c-11 384 -60 611 -187
872 -188 388 -510 627 -957 711 -85 16 -482 29 -543 18z"/>
<path d="M3850 6565 l0 -405 450 0 450 0 0 -475 0 -475 440 0 440 0 0 475 0
475 450 0 450 0 0 405 0 405 -1340 0 -1340 0 0 -405z"/>
<path d="M6930 6090 l0 -880 1110 0 c611 0 1110 1 1110 3 0 2 -63 120 -139
262 -116 218 -137 262 -126 275 157 187 1004 1191 1014 1203 13 16 -20 17
-573 17 l-586 0 -457 -610 -458 -610 -5 607 -5 608 -442 3 -443 2 0 -880z"/>
<path d="M4750 4875 l0 -85 440 0 440 0 0 85 0 85 -440 0 -440 0 0 -85z"/>
<path d="M6930 4875 l0 -85 563 0 564 0 66 80 c37 43 67 82 67 85 0 3 -283 5
-630 5 l-630 0 0 -85z"/>
<path d="M8313 4948 c2 -7 19 -46 37 -85 l33 -73 493 0 c272 0 494 2 494 5 0
3 -18 41 -40 85 l-40 80 -491 0 c-389 0 -490 -3 -486 -12z"/>
<path d="M10025 4948 c2 -7 9 -46 15 -85 l12 -73 453 0 452 0 -20 73 c-11 39
-21 78 -23 85 -3 9 -101 12 -448 12 -352 0 -445 -3 -441 -12z"/>
<path d="M12046 4948 c-7 -21 -36 -147 -36 -153 0 -3 202 -5 449 -5 l449 0 12
73 c6 39 13 78 15 85 4 9 -89 12 -441 12 -347 0 -445 -3 -448 -12z"/>
<path d="M4750 4465 l0 -75 440 0 440 0 0 75 0 75 -440 0 -440 0 0 -75z"/>
<path d="M6930 4465 l0 -75 445 0 445 0 0 56 c0 30 5 64 10 75 11 19 2 19
-445 19 l-455 0 0 -75z"/>
<path d="M8500 4535 c0 -3 14 -36 31 -75 l32 -70 514 0 515 0 -39 73 -39 72
-507 3 c-279 1 -507 0 -507 -3z"/>
<path d="M10130 4533 c0 -3 14 -37 31 -75 l32 -68 1293 0 1292 0 30 73 31 72
-489 3 -490 2 -64 -44 c-76 -52 -133 -72 -238 -86 -145 -18 -283 14 -392 90
l-57 40 -489 0 c-270 0 -490 -3 -490 -7z"/>
<path d="M4750 4080 l0 -60 440 0 440 0 0 60 0 60 -440 0 -440 0 0 -60z"/>
<path d="M6930 4080 l0 -60 443 2 442 3 0 55 0 55 -442 3 -443 2 0 -60z"/>
<path d="M8686 4118 c3 -13 15 -40 25 -60 l19 -38 525 0 c343 0 525 3 525 10
0 5 -12 32 -27 60 l-28 50 -523 0 -523 0 7 -22z"/>
<path d="M10371 4113 c13 -16 37 -43 53 -60 l30 -33 1031 0 1031 0 30 33 c16
17 40 44 53 60 l24 27 -1138 0 -1138 0 24 -27z"/>
<path d="M4750 3740 l0 -40 440 0 440 0 0 40 0 40 -440 0 -440 0 0 -40z"/>
<path d="M6934 3766 c-3 -8 -4 -25 -2 -38 l3 -23 440 0 440 0 0 35 0 35 -438
3 c-373 2 -438 0 -443 -12z"/>
<path d="M8847 3773 c-2 -5 2 -23 9 -40 l14 -33 540 0 c370 0 540 3 540 10 0
6 -7 24 -15 40 l-16 30 -534 0 c-293 0 -536 -3 -538 -7z"/>
<path d="M10830 3771 c0 -11 173 -66 270 -85 247 -49 551 -49 789 0 83 17 240
69 255 84 7 7 -201 10 -652 10 -383 0 -662 -4 -662 -9z"/>
</g>
</svg>
